{
    "asset" : {
        "generator" : "Khronos glTF Blender I/O v3.2.43",
        "version" : "2.0"
    },
    "scene" : 0,
    "scenes" : [
        {
            "name" : "Scene",
            "nodes" : [
                0
            ]
        }
    ],
    "nodes" : [
        {
            "mesh" : 0,
            "name" : "Roundcube.020",
            "rotation" : [
                -0.004605057183653116,
                -0.01656399853527546,
                -0.012967672199010849,
                0.9997681379318237
            ],
            "scale" : [
                1.7042793035507202,
                1.2432116270065308,
                1.9691354036331177
            ]
        }
    ],
    "materials" : [
        {
            "doubleSided" : true,
            "name" : "Material.048",
            "pbrMetallicRoughness" : {
                "baseColorFactor" : [
                    0.8549925684928894,
                    0.25818246603012085,
                    0.4564109444618225,
                    1
                ],
                "metallicFactor" : 0,
                "roughnessFactor" : 0.36899998784065247
            }
        },
        {
            "doubleSided" : true,
            "name" : "Material.028",
            "pbrMetallicRoughness" : {
                "baseColorFactor" : [
                    0,
                    0,
                    0,
                    1
                ],
                "metallicFactor" : 0,
                "roughnessFactor" : 0.12091502547264099
            }
        },
        {
            "doubleSided" : true,
            "name" : "Material.033",
            "pbrMetallicRoughness" : {
                "baseColorFactor" : [
                    0.800000011920929,
                    0.800000011920929,
                    0.800000011920929,
                    1
                ],
                "metallicFactor" : 0,
                "roughnessFactor" : 0.5
            }
        },
        {
            "doubleSided" : true,
            "name" : "Material.037",
            "pbrMetallicRoughness" : {
                "baseColorFactor" : [
                    0.800000011920929,
                    0.800000011920929,
                    0.800000011920929,
                    1
                ],
                "metallicFactor" : 0,
                "roughnessFactor" : 0.5
            }
        },
        {
            "doubleSided" : true,
            "name" : "Material.040",
            "pbrMetallicRoughness" : {
                "baseColorFactor" : [
                    0,
                    0,
                    0,
                    1
                ],
                "metallicFactor" : 0,
                "roughnessFactor" : 0.12091502547264099
            }
        },
        {
            "doubleSided" : true,
            "name" : "Material.043",
            "pbrMetallicRoughness" : {
                "baseColorFactor" : [
                    0.8549925684928894,
                    0.050094760954380035,
                    0,
                    1
                ],
                "metallicFactor" : 0,
                "roughnessFactor" : 0.5
            }
        },
        {
            "doubleSided" : true,
            "name" : "Material.044",
            "pbrMetallicRoughness" : {
                "baseColorFactor" : [
                    0.8549925684928894,
                    0.25818246603012085,
                    0.4564109444618225,
                    1
                ],
                "metallicFactor" : 0,
                "roughnessFactor" : 0.36899998784065247
            }
        },
        {
            "doubleSided" : true,
            "name" : "Material.045",
            "pbrMetallicRoughness" : {
                "baseColorFactor" : [
                    0.8549925684928894,
                    0.25818246603012085,
                    0.4564109444618225,
                    1
                ],
                "metallicFactor" : 0,
                "roughnessFactor" : 0.36899998784065247
            }
        },
        {
            "doubleSided" : true,
            "name" : "Material.046",
            "pbrMetallicRoughness" : {
                "baseColorFactor" : [
                    0.8549929857254028,
                    0.10702286660671234,
                    0.010960143059492111,
                    1
                ],
                "metallicFactor" : 0,
                "roughnessFactor" : 0.11999999731779099
            }
        },
        {
            "doubleSided" : true,
            "name" : "Material.047",
            "pbrMetallicRoughness" : {
                "baseColorFactor" : [
                    0.8549929857254028,
                    0.10702286660671234,
                    0.010960143059492111,
                    1
                ],
                "metallicFactor" : 0,
                "roughnessFactor" : 0.11999999731779099
            }
        },
        {
            "doubleSided" : true,
            "name" : "Material.050",
            "pbrMetallicRoughness" : {
                "baseColorFactor" : [
                    0.8549925684928894,
                    0.25818246603012085,
                    0.4564109444618225,
                    1
                ],
                "metallicFactor" : 0,
                "roughnessFactor" : 0.36899998784065247
            }
        }
    ],
    "meshes" : [
        {
            "name" : "Roundcube.020",
            "primitives" : [
                {
                    "attributes" : {
                        "POSITION" : 0,
                        "NORMAL" : 1
                    },
                    "indices" : 2,
                    "material" : 0
                },
                {
                    "attributes" : {
                        "POSITION" : 3,
                        "NORMAL" : 4
                    },
                    "indices" : 2,
                    "material" : 1
                },
                {
                    "attributes" : {
                        "POSITION" : 5,
                        "NORMAL" : 6
                    },
                    "indices" : 2,
                    "material" : 2
                },
                {
                    "attributes" : {
                        "POSITION" : 7,
                        "NORMAL" : 8
                    },
                    "indices" : 2,
                    "material" : 3
                },
                {
                    "attributes" : {
                        "POSITION" : 9,
                        "NORMAL" : 10
                    },
                    "indices" : 2,
                    "material" : 4
                },
                {
                    "attributes" : {
                        "POSITION" : 11,
                        "NORMAL" : 12
                    },
                    "indices" : 2,
                    "material" : 5
                },
                {
                    "attributes" : {
                        "POSITION" : 13,
                        "NORMAL" : 14
                    },
                    "indices" : 2,
                    "material" : 6
                },
                {
                    "attributes" : {
                        "POSITION" : 15,
                        "NORMAL" : 16
                    },
                    "indices" : 2,
                    "material" : 7
                },
                {
                    "attributes" : {
                        "POSITION" : 17,
                        "NORMAL" : 18
                    },
                    "indices" : 19,
                    "material" : 8
                },
                {
                    "attributes" : {
                        "POSITION" : 20,
                        "NORMAL" : 21
                    },
                    "indices" : 19,
                    "material" : 9
                },
                {
                    "attributes" : {
                        "POSITION" : 22,
                        "NORMAL" : 23
                    },
                    "indices" : 2,
                    "material" : 10
                }
            ]
        }
    ],
    "accessors" : [
        {
            "bufferView" : 0,
            "componentType" : 5126,
            "count" : 1538,
            "max" : [
                0.9578093886375427,
                0.9371994733810425,
                1.0929096937179565
            ],
            "min" : [
                -0.9576638340950012,
                -0.8249293565750122,
                -0.9618859887123108
            ],
            "type" : "VEC3"
        },
        {
            "bufferView" : 1,
            "componentType" : 5126,
            "count" : 1538,
            "type" : "VEC3"
        },
        {
            "bufferView" : 2,
            "componentType" : 5123,
            "count" : 9216,
            "type" : "SCALAR"
        },
        {
            "bufferView" : 3,
            "componentType" : 5126,
            "count" : 1538,
            "max" : [
                -0.21702024340629578,
                1.6654143333435059,
                -0.7957637906074524
            ],
            "min" : [
                -0.3706534504890442,
                1.4499684572219849,
                -0.8958929181098938
            ],
            "type" : "VEC3"
        },
        {
            "bufferView" : 4,
            "componentType" : 5126,
            "count" : 1538,
            "type" : "VEC3"
        },
        {
            "bufferView" : 5,
            "componentType" : 5126,
            "count" : 1538,
            "max" : [
                -0.2398613840341568,
                1.6353081464767456,
                -0.8521587252616882
            ],
            "min" : [
                -0.31119266152381897,
                1.5370277166366577,
                -0.8970990180969238
            ],
            "type" : "VEC3"
        },
        {
            "bufferView" : 6,
            "componentType" : 5126,
            "count" : 1538,
            "type" : "VEC3"
        },
        {
            "bufferView" : 7,
            "componentType" : 5126,
            "count" : 1538,
            "max" : [
                0.29702675342559814,
                1.6509443521499634,
                -0.8286870718002319
            ],
            "min" : [
                0.2266489565372467,
                1.5559749603271484,
                -0.8773048520088196
            ],
            "type" : "VEC3"
        },
        {
            "bufferView" : 8,
            "componentType" : 5126,
            "count" : 1538,
            "type" : "VEC3"
        },
        {
            "bufferView" : 9,
            "componentType" : 5126,
            "count" : 1538,
            "max" : [
                0.31715890765190125,
                1.681936502456665,
                -0.7949181795120239
            ],
            "min" : [
                0.15873795747756958,
                1.4690725803375244,
                -0.8916391730308533
            ],
            "type" : "VEC3"
        },
        {
            "bufferView" : 10,
            "componentType" : 5126,
            "count" : 1538,
            "type" : "VEC3"
        },
        {
            "bufferView" : 11,
            "componentType" : 5126,
            "count" : 1538,
            "max" : [
                0.2623578608036041,
                1.3756967782974243,
                -0.4722123146057129
            ],
            "min" : [
                -0.3143998682498932,
                0.9508388638496399,
                -0.9420862793922424
            ],
            "type" : "VEC3"
        },
        {
            "bufferView" : 12,
            "componentType" : 5126,
            "count" : 1538,
            "type" : "VEC3"
        },
        {
            "bufferView" : 13,
            "componentType" : 5126,
            "count" : 1538,
            "max" : [
                -0.44429677724838257,
                0.5844798684120178,
                0.6838639974594116
            ],
            "min" : [
                -1.0257389545440674,
                -0.39562785625457764,
                -0.4829098880290985
            ],
            "type" : "VEC3"
        },
        {
            "bufferView" : 14,
            "componentType" : 5126,
            "count" : 1538,
            "type" : "VEC3"
        },
        {
            "bufferView" : 15,
            "componentType" : 5126,
            "count" : 1538,
            "max" : [
                0.9974445700645447,
                0.6547306180000305,
                0.6669519543647766
            ],
            "min" : [
                0.46518808603286743,
                -0.34213078022003174,
                -0.5319547653198242
            ],
            "type" : "VEC3"
        },
        {
            "bufferView" : 16,
            "componentType" : 5126,
            "count" : 1538,
            "type" : "VEC3"
        },
        {
            "bufferView" : 17,
            "componentType" : 5126,
            "count" : 933,
            "max" : [
                0.33051905035972595,
                1.4227571487426758,
                -0.5312445163726807
            ],
            "min" : [
                -0.3202212452888489,
                0.7484756708145142,
                -1.0603783130645752
            ],
            "type" : "VEC3"
        },
        {
            "bufferView" : 18,
            "componentType" : 5126,
            "count" : 933,
            "type" : "VEC3"
        },
        {
            "bufferView" : 19,
            "componentType" : 5123,
            "count" : 5376,
            "type" : "SCALAR"
        },
        {
            "bufferView" : 20,
            "componentType" : 5126,
            "count" : 933,
            "max" : [
                0.3431457579135895,
                1.5319645404815674,
                -0.48557576537132263
            ],
            "min" : [
                -0.3155750036239624,
                0.9141438603401184,
                -1.0203194618225098
            ],
            "type" : "VEC3"
        },
        {
            "bufferView" : 21,
            "componentType" : 5126,
            "count" : 933,
            "type" : "VEC3"
        },
        {
            "bufferView" : 22,
            "componentType" : 5126,
            "count" : 1538,
            "max" : [
                0.5756546258926392,
                2.2363998889923096,
                0.11573942005634308
            ],
            "min" : [
                -0.6277331709861755,
                0.5858780145645142,
                -0.926094651222229
            ],
            "type" : "VEC3"
        },
        {
            "bufferView" : 23,
            "componentType" : 5126,
            "count" : 1538,
            "type" : "VEC3"
        }
    ],
    "bufferViews" : [
        {
            "buffer" : 0,
            "byteLength" : 18456,
            "byteOffset" : 0
        },
        {
            "buffer" : 0,
            "byteLength" : 18456,
            "byteOffset" : 18456
        },
        {
            "buffer" : 0,
            "byteLength" : 18432,
            "byteOffset" : 36912
        },
        {
            "buffer" : 0,
            "byteLength" : 18456,
            "byteOffset" : 55344
        },
        {
            "buffer" : 0,
            "byteLength" : 18456,
            "byteOffset" : 73800
        },
        {
            "buffer" : 0,
            "byteLength" : 18456,
            "byteOffset" : 92256
        },
        {
            "buffer" : 0,
            "byteLength" : 18456,
            "byteOffset" : 110712
        },
        {
            "buffer" : 0,
            "byteLength" : 18456,
            "byteOffset" : 129168
        },
        {
            "buffer" : 0,
            "byteLength" : 18456,
            "byteOffset" : 147624
        },
        {
            "buffer" : 0,
            "byteLength" : 18456,
            "byteOffset" : 166080
        },
        {
            "buffer" : 0,
            "byteLength" : 18456,
            "byteOffset" : 184536
        },
        {
            "buffer" : 0,
            "byteLength" : 18456,
            "byteOffset" : 202992
        },
        {
            "buffer" : 0,
            "byteLength" : 18456,
            "byteOffset" : 221448
        },
        {
            "buffer" : 0,
            "byteLength" : 18456,
            "byteOffset" : 239904
        },
        {
            "buffer" : 0,
            "byteLength" : 18456,
            "byteOffset" : 258360
        },
        {
            "buffer" : 0,
            "byteLength" : 18456,
            "byteOffset" : 276816
        },
        {
            "buffer" : 0,
            "byteLength" : 18456,
            "byteOffset" : 295272
        },
        {
            "buffer" : 0,
            "byteLength" : 11196,
            "byteOffset" : 313728
        },
        {
            "buffer" : 0,
            "byteLength" : 11196,
            "byteOffset" : 324924
        },
        {
            "buffer" : 0,
            "byteLength" : 10752,
            "byteOffset" : 336120
        },
        {
            "buffer" : 0,
            "byteLength" : 11196,
            "byteOffset" : 346872
        },
        {
            "buffer" : 0,
            "byteLength" : 11196,
            "byteOffset" : 358068
        },
        {
            "buffer" : 0,
            "byteLength" : 18456,
            "byteOffset" : 369264
        },
        {
            "buffer" : 0,
            "byteLength" : 18456,
            "byteOffset" : 387720
        }
    ],
    "buffers" : [
        {
            "byteLength" : 406176,
            "uri" : "data:application/octet-stream;base64,"
        }
    ]
}
