{
    "asset" : {
        "generator" : "Khronos glTF Blender I/O v3.2.43",
        "version" : "2.0"
    },
    "scene" : 0,
    "scenes" : [
        {
            "name" : "Scene",
            "nodes" : [
                0,
                1,
                2,
                3,
                4,
                5
            ]
        }
    ],
    "nodes" : [
        {
            "mesh" : 0,
            "name" : "Roundcube"
        },
        {
            "mesh" : 1,
            "name" : "Circle",
            "scale" : [
                1.2095510959625244,
                1.2095510959625244,
                1.2095510959625244
            ]
        },
        {
            "mesh" : 2,
            "name" : "Torus",
            "scale" : [
                1.2328988313674927,
                1.2328988313674927,
                1.2328988313674927
            ],
            "translation" : [
                0,
                0.05012764036655426,
                0
            ]
        },
        {
            "mesh" : 3,
            "name" : "Torus.001",
            "scale" : [
                1.3958323001861572,
                1.3958323001861572,
                1.3958323001861572
            ],
            "translation" : [
                0,
                0.05012764036655426,
                0
            ]
        },
        {
            "mesh" : 4,
            "name" : "Torus.002",
            "scale" : [
                1.2328988313674927,
                1.2328988313674927,
                1.2328988313674927
            ],
            "translation" : [
                0,
                0.004915148019790649,
                0
            ]
        },
        {
            "mesh" : 5,
            "name" : "Torus.003",
            "scale" : [
                1.4140411615371704,
                1.4140411615371704,
                1.4140411615371704
            ],
            "translation" : [
                0,
                0.004915148019790649,
                0
            ]
        }
    ],
    "materials" : [
        {
            "doubleSided" : true,
            "name" : "Material.002",
            "pbrMetallicRoughness" : {
                "baseColorTexture" : {
                    "index" : 0
                },
                "metallicFactor" : 0,
                "roughnessFactor" : 0.5
            }
        },
        {
            "doubleSided" : true,
            "name" : "Material.005",
            "pbrMetallicRoughness" : {
                "baseColorFactor" : [
                    0.2746773660182953,
                    0.21586059033870697,
                    0.25015830993652344,
                    1
                ],
                "metallicFactor" : 0,
                "roughnessFactor" : 0.5
            }
        },
        {
            "doubleSided" : true,
            "name" : "Material.008",
            "pbrMetallicRoughness" : {
                "baseColorFactor" : [
                    0.5583400726318359,
                    0.4620765447616577,
                    0.3864295482635498,
                    1
                ],
                "metallicFactor" : 0,
                "roughnessFactor" : 0.5
            }
        },
        {
            "doubleSided" : true,
            "name" : "Material.007",
            "pbrMetallicRoughness" : {
                "baseColorFactor" : [
                    0.5583400726318359,
                    0.4620765447616577,
                    0.3864295482635498,
                    1
                ],
                "metallicFactor" : 0,
                "roughnessFactor" : 0.5
            }
        },
        {
            "doubleSided" : true,
            "name" : "Material.006",
            "pbrMetallicRoughness" : {
                "baseColorFactor" : [
                    0.5583400726318359,
                    0.4620765447616577,
                    0.3864295482635498,
                    1
                ],
                "metallicFactor" : 0,
                "roughnessFactor" : 0.5
            }
        },
        {
            "doubleSided" : true,
            "name" : "Material.009",
            "pbrMetallicRoughness" : {
                "baseColorFactor" : [
                    0.5583400726318359,
                    0.4620765447616577,
                    0.3864295482635498,
                    1
                ],
                "metallicFactor" : 0,
                "roughnessFactor" : 0.5
            }
        }
    ],
    "meshes" : [
        {
            "name" : "Roundcube",
            "primitives" : [
                {
                    "attributes" : {
                        "POSITION" : 0,
                        "NORMAL" : 1,
                        "TEXCOORD_0" : 2
                    },
                    "indices" : 3,
                    "material" : 0
                }
            ]
        },
        {
            "name" : "Circle.001",
            "primitives" : [
                {
                    "attributes" : {
                        "POSITION" : 4,
                        "NORMAL" : 5,
                        "TEXCOORD_0" : 6
                    },
                    "indices" : 7,
                    "material" : 1
                }
            ]
        },
        {
            "name" : "Torus",
            "primitives" : [
                {
                    "attributes" : {
                        "POSITION" : 8,
                        "NORMAL" : 9,
                        "TEXCOORD_0" : 10
                    },
                    "indices" : 11,
                    "material" : 2
                }
            ]
        },
        {
            "name" : "Torus.001",
            "primitives" : [
                {
                    "attributes" : {
                        "POSITION" : 12,
                        "NORMAL" : 13,
                        "TEXCOORD_0" : 14
                    },
                    "indices" : 11,
                    "material" : 3
                }
            ]
        },
        {
            "name" : "Torus.002",
            "primitives" : [
                {
                    "attributes" : {
                        "POSITION" : 15,
                        "NORMAL" : 16,
                        "TEXCOORD_0" : 17
                    },
                    "indices" : 11,
                    "material" : 4
                }
            ]
        },
        {
            "name" : "Torus.003",
            "primitives" : [
                {
                    "attributes" : {
                        "POSITION" : 18,
                        "NORMAL" : 19,
                        "TEXCOORD_0" : 20
                    },
                    "indices" : 11,
                    "material" : 5
                }
            ]
        }
    ],
    "textures" : [
        {
            "sampler" : 0,
            "source" : 0
        }
    ],
    "images" : [
        {
            "bufferView" : 4,
            "mimeType" : "image/png",
            "name" : "wavylines"
        }
    ],
    "accessors" : [
        {
            "bufferView" : 0,
            "componentType" : 5126,
            "count" : 108,
            "max" : [
                1,
                1,
                1
            ],
            "min" : [
                -1,
                -1,
                -1
            ],
            "type" : "VEC3"
        },
        {
            "bufferView" : 1,
            "componentType" : 5126,
            "count" : 108,
            "type" : "VEC3"
        },
        {
            "bufferView" : 2,
            "componentType" : 5126,
            "count" : 108,
            "type" : "VEC2"
        },
        {
            "bufferView" : 3,
            "componentType" : 5123,
            "count" : 576,
            "type" : "SCALAR"
        },
        {
            "bufferView" : 5,
            "componentType" : 5126,
            "count" : 160,
            "max" : [
                1.2831480503082275,
                0.047189876437187195,
                1.283080816268921
            ],
            "min" : [
                -1.283080816268921,
                -6.28158450126648e-05,
                -1.2841919660568237
            ],
            "type" : "VEC3"
        },
        {
            "bufferView" : 6,
            "componentType" : 5126,
            "count" : 160,
            "type" : "VEC3"
        },
        {
            "bufferView" : 7,
            "componentType" : 5126,
            "count" : 160,
            "type" : "VEC2"
        },
        {
            "bufferView" : 8,
            "componentType" : 5123,
            "count" : 768,
            "type" : "SCALAR"
        },
        {
            "bufferView" : 9,
            "componentType" : 5126,
            "count" : 343,
            "max" : [
                1.0199999809265137,
                0.01732046902179718,
                1.0199999809265137
            ],
            "min" : [
                -1.0199999809265137,
                -0.01732046902179718,
                -1.0199999809265137
            ],
            "type" : "VEC3"
        },
        {
            "bufferView" : 10,
            "componentType" : 5126,
            "count" : 343,
            "type" : "VEC3"
        },
        {
            "bufferView" : 11,
            "componentType" : 5126,
            "count" : 343,
            "type" : "VEC2"
        },
        {
            "bufferView" : 12,
            "componentType" : 5123,
            "count" : 1728,
            "type" : "SCALAR"
        },
        {
            "bufferView" : 13,
            "componentType" : 5126,
            "count" : 343,
            "max" : [
                1.0199999809265137,
                0.01732046902179718,
                1.0199999809265137
            ],
            "min" : [
                -1.0199999809265137,
                -0.01732046902179718,
                -1.0199999809265137
            ],
            "type" : "VEC3"
        },
        {
            "bufferView" : 14,
            "componentType" : 5126,
            "count" : 343,
            "type" : "VEC3"
        },
        {
            "bufferView" : 15,
            "componentType" : 5126,
            "count" : 343,
            "type" : "VEC2"
        },
        {
            "bufferView" : 16,
            "componentType" : 5126,
            "count" : 343,
            "max" : [
                1.0199999809265137,
                0.01732046902179718,
                1.0199999809265137
            ],
            "min" : [
                -1.0199999809265137,
                -0.01732046902179718,
                -1.0199999809265137
            ],
            "type" : "VEC3"
        },
        {
            "bufferView" : 17,
            "componentType" : 5126,
            "count" : 343,
            "type" : "VEC3"
        },
        {
            "bufferView" : 18,
            "componentType" : 5126,
            "count" : 343,
            "type" : "VEC2"
        },
        {
            "bufferView" : 19,
            "componentType" : 5126,
            "count" : 343,
            "max" : [
                1.0199999809265137,
                0.01732046902179718,
                1.0199999809265137
            ],
            "min" : [
                -1.0199999809265137,
                -0.01732046902179718,
                -1.0199999809265137
            ],
            "type" : "VEC3"
        },
        {
            "bufferView" : 20,
            "componentType" : 5126,
            "count" : 343,
            "type" : "VEC3"
        },
        {
            "bufferView" : 21,
            "componentType" : 5126,
            "count" : 343,
            "type" : "VEC2"
        }
    ],
    "bufferViews" : [
        {
            "buffer" : 0,
            "byteLength" : 1296,
            "byteOffset" : 0
        },
        {
            "buffer" : 0,
            "byteLength" : 1296,
            "byteOffset" : 1296
        },
        {
            "buffer" : 0,
            "byteLength" : 864,
            "byteOffset" : 2592
        },
        {
            "buffer" : 0,
            "byteLength" : 1152,
            "byteOffset" : 3456
        },
        {
            "buffer" : 0,
            "byteLength" : 46694,
            "byteOffset" : 4608
        },
        {
            "buffer" : 0,
            "byteLength" : 1920,
            "byteOffset" : 51304
        },
        {
            "buffer" : 0,
            "byteLength" : 1920,
            "byteOffset" : 53224
        },
        {
            "buffer" : 0,
            "byteLength" : 1280,
            "byteOffset" : 55144
        },
        {
            "buffer" : 0,
            "byteLength" : 1536,
            "byteOffset" : 56424
        },
        {
            "buffer" : 0,
            "byteLength" : 4116,
            "byteOffset" : 57960
        },
        {
            "buffer" : 0,
            "byteLength" : 4116,
            "byteOffset" : 62076
        },
        {
            "buffer" : 0,
            "byteLength" : 2744,
            "byteOffset" : 66192
        },
        {
            "buffer" : 0,
            "byteLength" : 3456,
            "byteOffset" : 68936
        },
        {
            "buffer" : 0,
            "byteLength" : 4116,
            "byteOffset" : 72392
        },
        {
            "buffer" : 0,
            "byteLength" : 4116,
            "byteOffset" : 76508
        },
        {
            "buffer" : 0,
            "byteLength" : 2744,
            "byteOffset" : 80624
        },
        {
            "buffer" : 0,
            "byteLength" : 4116,
            "byteOffset" : 83368
        },
        {
            "buffer" : 0,
            "byteLength" : 4116,
            "byteOffset" : 87484
        },
        {
            "buffer" : 0,
            "byteLength" : 2744,
            "byteOffset" : 91600
        },
        {
            "buffer" : 0,
            "byteLength" : 4116,
            "byteOffset" : 94344
        },
        {
            "buffer" : 0,
            "byteLength" : 4116,
            "byteOffset" : 98460
        },
        {
            "buffer" : 0,
            "byteLength" : 2744,
            "byteOffset" : 102576
        }
    ],
    "samplers" : [
        {
            "magFilter" : 9729,
            "minFilter" : 9987
        }
    ],
    "buffers" : [
        {
            "byteLength" : 105320,
            "uri" : "data:application/octet-stream;base64,"
        }
    ]
}
