{
    "asset" : {
        "generator" : "Khronos glTF Blender I/O v3.2.43",
        "version" : "2.0"
    },
    "scene" : 0,
    "scenes" : [
        {
            "name" : "Scene",
            "nodes" : [
                0,
                1,
                2,
                3,
                4,
                5
            ]
        }
    ],
    "nodes" : [
        {
            "mesh" : 0,
            "name" : "Roundcube"
        },
        {
            "mesh" : 1,
            "name" : "Circle",
            "scale" : [
                1.2095510959625244,
                1.2095510959625244,
                1.2095510959625244
            ]
        },
        {
            "mesh" : 2,
            "name" : "Torus",
            "scale" : [
                1.2328988313674927,
                1.2328988313674927,
                1.2328988313674927
            ],
            "translation" : [
                0,
                0.05012764036655426,
                0
            ]
        },
        {
            "mesh" : 3,
            "name" : "Torus.001",
            "scale" : [
                1.3958323001861572,
                1.3958323001861572,
                1.3958323001861572
            ],
            "translation" : [
                0,
                0.05012764036655426,
                0
            ]
        },
        {
            "mesh" : 4,
            "name" : "Torus.002",
            "scale" : [
                1.2328988313674927,
                1.2328988313674927,
                1.2328988313674927
            ],
            "translation" : [
                0,
                0.004915148019790649,
                0
            ]
        },
        {
            "mesh" : 5,
            "name" : "Torus.003",
            "scale" : [
                1.4140411615371704,
                1.4140411615371704,
                1.4140411615371704
            ],
            "translation" : [
                0,
                0.004915148019790649,
                0
            ]
        }
    ],
    "materials" : [
        {
            "doubleSided" : true,
            "name" : "Material.002",
            "pbrMetallicRoughness" : {
                "baseColorTexture" : {
                    "index" : 0
                },
                "metallicFactor" : 0,
                "roughnessFactor" : 0.5
            }
        },
        {
            "doubleSided" : true,
            "name" : "Material.005",
            "pbrMetallicRoughness" : {
                "baseColorFactor" : [
                    0.2746773660182953,
                    0.21586059033870697,
                    0.25015830993652344,
                    1
                ],
                "metallicFactor" : 0,
                "roughnessFactor" : 0.5
            }
        },
        {
            "doubleSided" : true,
            "name" : "Material.008",
            "pbrMetallicRoughness" : {
                "baseColorFactor" : [
                    0.5583400726318359,
                    0.4620765447616577,
                    0.3864295482635498,
                    1
                ],
                "metallicFactor" : 0,
                "roughnessFactor" : 0.5
            }
        },
        {
            "doubleSided" : true,
            "name" : "Material.007",
            "pbrMetallicRoughness" : {
                "baseColorFactor" : [
                    0.5583400726318359,
                    0.4620765447616577,
                    0.3864295482635498,
                    1
                ],
                "metallicFactor" : 0,
                "roughnessFactor" : 0.5
            }
        },
        {
            "doubleSided" : true,
            "name" : "Material.006",
            "pbrMetallicRoughness" : {
                "baseColorFactor" : [
                    0.5583400726318359,
                    0.4620765447616577,
                    0.3864295482635498,
                    1
                ],
                "metallicFactor" : 0,
                "roughnessFactor" : 0.5
            }
        },
        {
            "doubleSided" : true,
            "name" : "Material.009",
            "pbrMetallicRoughness" : {
                "baseColorFactor" : [
                    0.5583400726318359,
                    0.4620765447616577,
                    0.3864295482635498,
                    1
                ],
                "metallicFactor" : 0,
                "roughnessFactor" : 0.5
            }
        }
    ],
    "meshes" : [
        {
            "name" : "Roundcube",
            "primitives" : [
                {
                    "attributes" : {
                        "POSITION" : 0,
                        "NORMAL" : 1,
                        "TEXCOORD_0" : 2
                    },
                    "indices" : 3,
                    "material" : 0
                }
            ]
        },
        {
            "name" : "Circle.001",
            "primitives" : [
                {
                    "attributes" : {
                        "POSITION" : 4,
                        "NORMAL" : 5,
                        "TEXCOORD_0" : 6
                    },
                    "indices" : 7,
                    "material" : 1
                }
            ]
        },
        {
            "name" : "Torus",
            "primitives" : [
                {
                    "attributes" : {
                        "POSITION" : 8,
                        "NORMAL" : 9,
                        "TEXCOORD_0" : 10
                    },
                    "indices" : 11,
                    "material" : 2
                }
            ]
        },
        {
            "name" : "Torus.001",
            "primitives" : [
                {
                    "attributes" : {
                        "POSITION" : 12,
                        "NORMAL" : 13,
                        "TEXCOORD_0" : 14
                    },
                    "indices" : 11,
                    "material" : 3
                }
            ]
        },
        {
            "name" : "Torus.002",
            "primitives" : [
                {
                    "attributes" : {
                        "POSITION" : 15,
                        "NORMAL" : 16,
                        "TEXCOORD_0" : 17
                    },
                    "indices" : 11,
                    "material" : 4
                }
            ]
        },
        {
            "name" : "Torus.003",
            "primitives" : [
                {
                    "attributes" : {
                        "POSITION" : 18,
                        "NORMAL" : 19,
                        "TEXCOORD_0" : 20
                    },
                    "indices" : 11,
                    "material" : 5
                }
            ]
        }
    ],
    "textures" : [
        {
            "sampler" : 0,
            "source" : 0
        }
    ],
    "images" : [
        {
            "bufferView" : 4,
            "mimeType" : "image/png",
            "name" : "wavylines"
        }
    ],
    "accessors" : [
        {
            "bufferView" : 0,
            "componentType" : 5126,
            "count" : 1805,
            "max" : [
                0.9577365517616272,
                0.9577365517616272,
                0.9577365517616272
            ],
            "min" : [
                -0.9577365517616272,
                -0.957736611366272,
                -0.9577365517616272
            ],
            "type" : "VEC3"
        },
        {
            "bufferView" : 1,
            "componentType" : 5126,
            "count" : 1805,
            "type" : "VEC3"
        },
        {
            "bufferView" : 2,
            "componentType" : 5126,
            "count" : 1805,
            "type" : "VEC2"
        },
        {
            "bufferView" : 3,
            "componentType" : 5123,
            "count" : 9216,
            "type" : "SCALAR"
        },
        {
            "bufferView" : 5,
            "componentType" : 5126,
            "count" : 1728,
            "max" : [
                1.274765133857727,
                0.047058265656232834,
                1.2741758823394775
            ],
            "min" : [
                -1.2746978998184204,
                -6.281585228862241e-05,
                -1.2752870321273804
            ],
            "type" : "VEC3"
        },
        {
            "bufferView" : 6,
            "componentType" : 5126,
            "count" : 1728,
            "type" : "VEC3"
        },
        {
            "bufferView" : 7,
            "componentType" : 5126,
            "count" : 1728,
            "type" : "VEC2"
        },
        {
            "bufferView" : 8,
            "componentType" : 5123,
            "count" : 9984,
            "type" : "SCALAR"
        },
        {
            "bufferView" : 9,
            "componentType" : 5126,
            "count" : 1416,
            "max" : [
                1.0137674808502197,
                0.016598785296082497,
                1.0137674808502197
            ],
            "min" : [
                -1.0137673616409302,
                -0.016598785296082497,
                -1.0137674808502197
            ],
            "type" : "VEC3"
        },
        {
            "bufferView" : 10,
            "componentType" : 5126,
            "count" : 1416,
            "type" : "VEC3"
        },
        {
            "bufferView" : 11,
            "componentType" : 5126,
            "count" : 1416,
            "type" : "VEC2"
        },
        {
            "bufferView" : 12,
            "componentType" : 5123,
            "count" : 6912,
            "type" : "SCALAR"
        },
        {
            "bufferView" : 13,
            "componentType" : 5126,
            "count" : 1416,
            "max" : [
                1.0137674808502197,
                0.016598785296082497,
                1.0137674808502197
            ],
            "min" : [
                -1.0137673616409302,
                -0.016598785296082497,
                -1.0137674808502197
            ],
            "type" : "VEC3"
        },
        {
            "bufferView" : 14,
            "componentType" : 5126,
            "count" : 1416,
            "type" : "VEC3"
        },
        {
            "bufferView" : 15,
            "componentType" : 5126,
            "count" : 1416,
            "type" : "VEC2"
        },
        {
            "bufferView" : 16,
            "componentType" : 5126,
            "count" : 1416,
            "max" : [
                1.0137674808502197,
                0.016598785296082497,
                1.0137674808502197
            ],
            "min" : [
                -1.0137673616409302,
                -0.016598785296082497,
                -1.0137674808502197
            ],
            "type" : "VEC3"
        },
        {
            "bufferView" : 17,
            "componentType" : 5126,
            "count" : 1416,
            "type" : "VEC3"
        },
        {
            "bufferView" : 18,
            "componentType" : 5126,
            "count" : 1416,
            "type" : "VEC2"
        },
        {
            "bufferView" : 19,
            "componentType" : 5126,
            "count" : 1416,
            "max" : [
                1.0137674808502197,
                0.016598785296082497,
                1.0137674808502197
            ],
            "min" : [
                -1.0137673616409302,
                -0.016598785296082497,
                -1.0137674808502197
            ],
            "type" : "VEC3"
        },
        {
            "bufferView" : 20,
            "componentType" : 5126,
            "count" : 1416,
            "type" : "VEC3"
        },
        {
            "bufferView" : 21,
            "componentType" : 5126,
            "count" : 1416,
            "type" : "VEC2"
        }
    ],
    "bufferViews" : [
        {
            "buffer" : 0,
            "byteLength" : 21660,
            "byteOffset" : 0
        },
        {
            "buffer" : 0,
            "byteLength" : 21660,
            "byteOffset" : 21660
        },
        {
            "buffer" : 0,
            "byteLength" : 14440,
            "byteOffset" : 43320
        },
        {
            "buffer" : 0,
            "byteLength" : 18432,
            "byteOffset" : 57760
        },
        {
            "buffer" : 0,
            "byteLength" : 46694,
            "byteOffset" : 76192
        },
        {
            "buffer" : 0,
            "byteLength" : 20736,
            "byteOffset" : 122888
        },
        {
            "buffer" : 0,
            "byteLength" : 20736,
            "byteOffset" : 143624
        },
        {
            "buffer" : 0,
            "byteLength" : 13824,
            "byteOffset" : 164360
        },
        {
            "buffer" : 0,
            "byteLength" : 19968,
            "byteOffset" : 178184
        },
        {
            "buffer" : 0,
            "byteLength" : 16992,
            "byteOffset" : 198152
        },
        {
            "buffer" : 0,
            "byteLength" : 16992,
            "byteOffset" : 215144
        },
        {
            "buffer" : 0,
            "byteLength" : 11328,
            "byteOffset" : 232136
        },
        {
            "buffer" : 0,
            "byteLength" : 13824,
            "byteOffset" : 243464
        },
        {
            "buffer" : 0,
            "byteLength" : 16992,
            "byteOffset" : 257288
        },
        {
            "buffer" : 0,
            "byteLength" : 16992,
            "byteOffset" : 274280
        },
        {
            "buffer" : 0,
            "byteLength" : 11328,
            "byteOffset" : 291272
        },
        {
            "buffer" : 0,
            "byteLength" : 16992,
            "byteOffset" : 302600
        },
        {
            "buffer" : 0,
            "byteLength" : 16992,
            "byteOffset" : 319592
        },
        {
            "buffer" : 0,
            "byteLength" : 11328,
            "byteOffset" : 336584
        },
        {
            "buffer" : 0,
            "byteLength" : 16992,
            "byteOffset" : 347912
        },
        {
            "buffer" : 0,
            "byteLength" : 16992,
            "byteOffset" : 364904
        },
        {
            "buffer" : 0,
            "byteLength" : 11328,
            "byteOffset" : 381896
        }
    ],
    "samplers" : [
        {
            "magFilter" : 9729,
            "minFilter" : 9987
        }
    ],
    "buffers" : [
        {
            "byteLength" : 393224,
            "uri" : "data:application/octet-stream;base64,"
        }
    ]
}
