<svg xmlns="http://www.w3.org/2000/svg" xmlns:xlink="http://www.w3.org/1999/xlink" width="3000" zoomAndPan="magnify" viewBox="0 0 2250 2250.000011" height="3000" preserveAspectRatio="xMidYMid meet" version="1.0"><path fill="#ffd180" d="M 1274.390625 291.851562 C 1205.539062 305.863281 1162.480469 319.921875 1119.464844 359.980469 C 981.71875 482.222656 970.238281 596.445312 864.113281 764.78125 C 729.238281 983.222656 666.128906 1009.265625 491.109375 1161.605469 C 468.144531 1179.628906 450.921875 1197.695312 430.867188 1215.71875 C 267.332031 1358.011719 120.976562 1632.550781 304.605469 1808.90625 C 341.921875 1842.972656 382.070312 1871.039062 436.609375 1899.070312 C 488.238281 1925.113281 537.039062 1955.167969 611.628906 1935.160156 C 663.300781 1921.144531 712.058594 1887.039062 757.984375 1863.019531 C 806.785156 1836.976562 855.542969 1808.90625 915.78125 1796.875 C 973.152344 1784.847656 1056.398438 1778.851562 1116.636719 1790.882812 C 1240.027344 1814.941406 1415.046875 1971.25 1633.125 1867.03125 C 1934.40625 1722.753906 1799.535156 1490.257812 1902.832031 1251.765625 C 1940.148438 1163.585938 2023.351562 1029.316406 1971.683594 905.046875 C 1940.105469 824.886719 1888.476562 800.828125 1856.902344 772.757812 C 1839.679688 756.71875 1874.125 762.753906 1819.585938 734.683594 C 1796.621094 722.652344 1730.640625 658.535156 1707.675781 622.445312 C 1693.324219 600.410156 1684.710938 576.351562 1673.230469 546.296875 C 1633.042969 430.046875 1564.191406 379.945312 1458.019531 321.863281 C 1397.78125 289.78125 1351.851562 277.75 1274.390625 291.808594 Z M 1274.390625 291.851562 " fill-opacity="1" fill-rule="evenodd"/></svg>