<svg xmlns="http://www.w3.org/2000/svg" xmlns:xlink="http://www.w3.org/1999/xlink" width="3000" zoomAndPan="magnify" viewBox="0 0 2250 2250.000011" height="3000" preserveAspectRatio="xMidYMid meet" version="1.0"><path fill="#c244c0" d="M 1746.367188 258.894531 C 1890.636719 353.175781 1978.105469 533.792969 2019 711.003906 C 2059.894531 887.074219 2054.214844 1059.738281 2026.949219 1226.726562 C 2000.824219 1394.847656 1954.25 1557.285156 1859.964844 1698.144531 C 1765.679688 1839.003906 1625.957031 1958.277344 1460.105469 2020.753906 C 1293.121094 2084.367188 1102.28125 2091.183594 938.703125 2030.980469 C 776.257812 1969.636719 641.078125 1841.273438 517.261719 1700.417969 C 393.441406 1560.695312 279.84375 1409.613281 235.542969 1235.8125 C 190.105469 1062.011719 212.824219 865.492188 292.339844 696.234375 C 371.859375 526.976562 508.171875 384.984375 669.480469 298.652344 C 829.648438 212.320312 1015.945312 181.648438 1209.058594 170.289062 C 1402.171875 157.792969 1602.101562 165.746094 1746.367188 258.894531 Z M 1746.367188 258.894531 " fill-opacity="1" fill-rule="nonzero"/></svg>